<?xml version="1.0" standalone="no"?>
<!DOCTYPE svg PUBLIC "-//W3C//DTD SVG 20010904//EN" "http://www.w3.org/TR/2001/REC-SVG-20010904/DTD/svg10.dtd">
<!-- Created using Karbon, part of Calligra: http://www.calligra.org/karbon -->
<svg xmlns="http://www.w3.org/2000/svg" xmlns:xlink="http://www.w3.org/1999/xlink" width="96pt" height="96pt">
<defs/>
<g id="layer0">
  <rect id="rect13" transform="translate(3.73422, 3.73422)" fill="#071315" stroke="#2b7188" stroke-width="7.46844000000" stroke-linecap="round" stroke-linejoin="round" opacity="0.88862800000" width="90.02524800000pt" height="90.02524800000pt" rx="8.09511600000pt" ry="8.09511600000pt"/>
  <g id="g13" transform="translate(38.8494, -2.64176)" fill="none">
   <path id="path5" transform="matrix(1.46013 0 0 1.44052 21.1506 36.7124)" fill="none" stroke="#8acee4" stroke-width="3.97093000000" stroke-linecap="round" stroke-linejoin="round" d="M0 0L7 3L0 6"/>
   <path id="path6" transform="matrix(1.46013 0 0 1.44052 10.9297 45.3555)" fill="none" stroke="#8acee4" stroke-width="3.97093000000" stroke-linecap="round" stroke-linejoin="round" d="M7 0L0 3L7 6"/>
   <path id="path7" transform="matrix(1.46013 0 0 1.44052 21.1506 53.9986)" fill="none" stroke="#8acee4" stroke-width="3.97093000000" stroke-linecap="round" stroke-linejoin="round" d="M0 0L7 3L0 6"/>
   <path id="path8" transform="matrix(1.46013 0 0 1.44052 10.9297 62.6418)" fill="none" stroke="#8acee4" stroke-width="3.97093000000" stroke-linecap="round" stroke-linejoin="round" d="M7 0L0 3L7 6"/>
   <path id="path9" transform="matrix(1.46013 0 0 1.44052 21.1506 71.2849)" fill="none" stroke="#8acee4" stroke-width="3.97093000000" stroke-linecap="round" stroke-linejoin="round" d="M0 0L7 3L0 6"/>
   <path id="path10" transform="matrix(1.46013 0 0 1.44052 10.9297 79.928)" fill="none" stroke="#8acee4" stroke-width="3.97093000000" stroke-linecap="round" stroke-linejoin="round" d="M7 0L0 3L7 6"/>
   <path id="path11" transform="matrix(1.46013 0 0 1.44052 21.1506 20.8666)" fill="none" stroke="#8acee4" stroke-width="3.97093000000" stroke-linecap="round" stroke-linejoin="miter" stroke-miterlimit="10.00000000000" d="M0 0L0 10"/>
   <path id="path12" transform="matrix(1.46013 0 0 1.44052 21.1506 90.0117)" fill="none" stroke="#8acee4" stroke-width="3.97093000000" stroke-linecap="round" stroke-linejoin="miter" stroke-miterlimit="10.00000000000" d="M0 0L0 10"/>
  </g>
 </g>
</svg>
