<?xml version="1.0" encoding="UTF-8" standalone="no"?>
<svg
   viewBox="0 0 16 16"
   version="1.1"
   id="svg1"
   sodipodi:docname="sine-graphdBm.svg"
   inkscape:export-filename="sine-graphdBm.png"
   inkscape:export-xdpi="360.48999"
   inkscape:export-ydpi="360.48999"
   inkscape:version="1.3 (0e150ed6c4, 2023-07-21)"
   xmlns:inkscape="http://www.inkscape.org/namespaces/inkscape"
   xmlns:sodipodi="http://sodipodi.sourceforge.net/DTD/sodipodi-0.dtd"
   xmlns:xlink="http://www.w3.org/1999/xlink"
   xmlns="http://www.w3.org/2000/svg"
   xmlns:svg="http://www.w3.org/2000/svg">
  <defs
     id="defs1">
    <linearGradient
       id="linearGradient13"
       inkscape:collect="always">
      <stop
         style="stop-color:#000000;stop-opacity:1;"
         offset="0"
         id="stop13" />
      <stop
         style="stop-color:#000000;stop-opacity:0;"
         offset="1"
         id="stop14" />
    </linearGradient>
    <inkscape:path-effect
       effect="fillet_chamfer"
       id="path-effect2"
       is_visible="true"
       lpeversion="1"
       nodesatellites_param="F,0,0,1,0,3.6838197,0,1 @ F,0,0,1,0,3.269901,0,1 @ F,0,0,1,0,0,0,1 @ F,0,0,1,0,0,0,1 @ F,0,0,1,0,0,0,1 @ F,0,0,1,0,0,0,1 @ F,0,0,1,0,0,0,1 @ F,0,0,1,0,0,0,1 @ F,0,0,1,0,0,0,1 | F,0,1,1,0,3.3107338,0,1 @ F,0,0,1,0,0,0,1 @ F,0,0,1,0,0,0,1 @ F,0,0,1,0,0,0,1 @ F,0,0,1,0,0,0,1 @ F,0,0,1,0,0,0,1 @ F,0,0,1,0,0,0,1 @ F,0,0,1,0,3.7509583,0,1 @ F,0,0,1,0,3.3107338,0,1"
       radius="0"
       unit="px"
       method="auto"
       mode="F"
       chamfer_steps="1"
       flexible="false"
       use_knot_distance="true"
       apply_no_radius="true"
       apply_with_radius="true"
       only_selected="false"
       hide_knots="false" />
    <linearGradient
       inkscape:collect="always"
       xlink:href="#linearGradient13"
       id="linearGradient14"
       x1="-18.745474"
       y1="8.1902504"
       x2="17.046778"
       y2="7.605372"
       gradientUnits="userSpaceOnUse" />
  </defs>
  <sodipodi:namedview
     id="namedview1"
     pagecolor="#ffffff"
     bordercolor="#000000"
     borderopacity="0.25"
     inkscape:showpageshadow="2"
     inkscape:pageopacity="0.0"
     inkscape:pagecheckerboard="0"
     inkscape:deskcolor="#d1d1d1"
     inkscape:zoom="36.592776"
     inkscape:cx="5.2742651"
     inkscape:cy="5.4928875"
     inkscape:window-width="1920"
     inkscape:window-height="1030"
     inkscape:window-x="0"
     inkscape:window-y="0"
     inkscape:window-maximized="1"
     inkscape:current-layer="svg1" />
  <path
     d="M 12.316018,16.023404 H 3.2915387 A 3.269901,3.269901 45 0 1 0.0216377,12.753503 C 1.044243,11.811311 1.8615018,10.43848 2.3725902,8.8043754 3.2203937,6.6748328 3.8132914,5.3810504 4.9056011,5.3810504 c 1.0923098,0 1.6851943,1.2937623 2.5329976,3.423325 0.8178974,2.0589526 1.7463245,4.3926786 3.6824823,4.3926786 1.934854,0 2.861975,-2.333726 3.679874,-4.3926786 0.330232,-0.9175181 0.732775,-1.7715525 1.198883,-2.5435489 v 6.0787575 a 3.6838197,3.6838197 135 0 1 -3.68382,3.68382 z m 1.807276,-9.4512658 c -0.17773,0.3951994 -0.335636,0.8121367 -0.471812,1.2476097 -0.846498,2.130506 -1.439449,3.4233051 -2.530401,3.4233051 -1.09227,0 -1.685207,-1.2937625 -2.5330105,-3.4233051 C 7.7701862,5.7607954 6.8417596,3.4270494 4.905641,3.4270494 c -1.9361185,0 -2.8646251,2.333746 -3.6825225,4.3926985 C 0.89203418,8.7378527 0.48862124,9.592341 0.0216377,10.364662 V 3.717491 A 3.7509583,3.7509583 135 0 1 3.772596,-0.03346732 h 8.916508 a 3.3107338,3.3107338 45 0 1 3.310734,3.31073382 c 0,0.3281613 -1.13159,1.6383988 -1.876544,3.2948717 z"
     id="path1"
     style="display:inline;stroke-width:1.63478"
     inkscape:export-filename="./path1.svg"
     inkscape:export-xdpi="96"
     inkscape:export-ydpi="96"
     inkscape:original-d="M 15.999838,16.023404 H 0.0216377 V 12.753503 A 6.138412,9.252953 0 0 0 2.3725902,8.8043754 c 0.8478035,-2.1295426 1.4407012,-3.423325 2.5330109,-3.423325 1.0923098,0 1.6851943,1.2937623 2.5329976,3.423325 0.8178974,2.0589526 1.7463245,4.3926786 3.6824823,4.3926786 1.934854,0 2.861975,-2.333726 3.679874,-4.3926786 a 8.5998139,12.963235 0 0 1 1.198883,-2.5435489 z m 0,-12.1519806 a 6.1424997,9.2591149 0 0 0 -2.348356,3.9483245 c -0.846498,2.130506 -1.439449,3.4233051 -2.530401,3.4233051 -1.09227,0 -1.685207,-1.2937625 -2.5330105,-3.4233051 C 7.7701862,5.7607954 6.8417596,3.4270494 4.905641,3.4270494 c -1.9361185,0 -2.8646251,2.333746 -3.6825225,4.3926985 A 8.6122502,12.981981 0 0 1 0.0216377,10.364662 V -0.03346732 H 15.999838 Z"
     inkscape:path-effect="#path-effect2" />
  <path
     d="M 3.185958,7.0600466 V 5.0618796 H 4.3848581 V 10.243793 H 3.185958 V 9.7042875 q -0.2464406,0.3296975 -0.5428354,0.4828905 -0.2963947,0.153193 -0.6860373,0.153193 -0.6893676,0 -1.13229456,-0.546166 -0.442927,-0.5494959 -0.442927,-1.412038 0,-0.862542 0.442927,-1.4087077 0.44292696,-0.5494959 1.13229456,-0.5494959 0.3863123,0 0.6827071,0.1565231 0.299725,0.1531928 0.5461656,0.4795601 z M 2.4000123,9.4744983 q 0.382982,0 0.5827987,-0.2797434 0.203147,-0.2797434 0.203147,-0.8125879 0,-0.5328445 -0.203147,-0.8125879 -0.1998167,-0.2797433 -0.5827987,-0.2797433 -0.3796517,0 -0.5827987,0.2797433 Q 1.617397,7.8493225 1.617397,8.382167 q 0,0.5328445 0.1998166,0.8125879 0.203147,0.2797434 0.5827987,0.2797434 z M 7.5752647,7.196588 q 0.3030553,0 0.4595784,-0.1332112 0.156523,-0.1332111 0.156523,-0.3929728 0,-0.2564314 -0.156523,-0.3896425 Q 7.87832,6.1442201 7.5752647,6.1442201 H 6.8659154 V 7.196588 Z m 0.043294,2.1746716 q 0.3863122,0 0.5794684,-0.1631836 0.1964864,-0.1631836 0.1964864,-0.4928812 0,-0.323037 -0.1931561,-0.4828903 Q 8.0082008,8.0691209 7.6185583,8.0691209 H 6.8659154 V 9.3712596 Z M 8.8107979,7.5829002 q 0.4129545,0.1198901 0.6394134,0.442927 0.2264589,0.323037 0.2264589,0.7926063 0,0.7193401 -0.4862206,1.0723495 -0.4862206,0.35301 -1.4786435,0.35301 H 5.5837583 V 5.2716872 h 1.9249008 q 1.0357165,0 1.4986252,0.3130461 0.4662389,0.3130462 0.4662389,1.0024138 0,0.3630003 -0.1698441,0.6194317 Q 9.1338349,7.45968 8.8107979,7.5829002 Z M 14.185866,7.1333127 q 0.226459,-0.3463489 0.536175,-0.526184 0.313046,-0.1831653 0.686037,-0.1831653 0.642744,0 0.979102,0.3963031 0.336358,0.3963031 0.336358,1.1522763 v 2.2712502 h -1.1989 V 8.2989101 q 0.0033,-0.043294 0.0033,-0.089918 0.0033,-0.046624 0.0033,-0.1332111 0,-0.3963031 -0.11656,-0.5728078 -0.11656,-0.1798351 -0.376322,-0.1798351 -0.339688,0 -0.526184,0.2797434 -0.183165,0.2797434 -0.189825,0.8092576 V 10.243793 H 13.123507 V 8.2989101 q 0,-0.6194318 -0.106568,-0.7959365 -0.106569,-0.1798351 -0.379652,-0.1798351 -0.343019,0 -0.529514,0.2830737 -0.186496,0.2797434 -0.186496,0.802597 v 1.8349838 h -1.1989 V 6.5138809 h 1.1989 v 0.5461657 q 0.219798,-0.3163765 0.502872,-0.4762298 0.286404,-0.1598534 0.629423,-0.1598534 0.386312,0 0.682707,0.1864956 0.296394,0.1864956 0.449587,0.5228537 z"
     id="text4"
     style="font-weight:bold;font-size:6.82041px;line-height:0;font-family:'DejaVu Sans';-inkscape-font-specification:'DejaVu Sans, Bold';letter-spacing:0px;stroke-width:0.852551;fill:#ed333b;stroke:url(#linearGradient14);fill-opacity:1"
     inkscape:highlight-color="#d97b7b"
     transform="scale(0.91414463,1.0939188)"
     aria-label="dBm" />
</svg>
